<svg version="1.1" id="Layer_1" xmlns="http://www.w3.org/2000/svg" xmlns:xlink="http://www.w3.org/1999/xlink" x="0px" y="0px"
	 width="100%" viewBox="0 0 1080 1080" enable-background="new 0 0 1080 1080" xml:space="preserve">
<path fill="#FFFFFF" opacity="1.000000" stroke="none" 
	d="
M627.000000,1081.000000 
	C418.024048,1081.000000 209.548126,1081.000000 1.036090,1081.000000 
	C1.036090,721.065613 1.036090,361.131195 1.036090,1.098403 
	C360.892853,1.098403 720.785706,1.098403 1080.839355,1.098403 
	C1080.839355,360.999939 1080.839355,720.999939 1080.839355,1081.000000 
	C929.797424,1081.000000 778.648743,1081.000000 627.000000,1081.000000 
M239.998291,835.001709 
	C239.998291,835.001709 239.934296,835.010132 240.020813,835.575073 
	C240.343872,835.738586 240.666931,835.902100 240.998322,836.001526 
	C240.998322,836.001526 240.934143,836.009521 241.023300,836.572083 
	C241.344833,836.736450 241.666367,836.900879 241.998154,837.003052 
	C241.998154,837.003052 241.937088,837.018921 242.035538,837.639282 
	C242.682877,838.113159 243.330231,838.587036 243.996124,839.001221 
	C243.996124,839.001221 243.934479,839.011719 244.050476,839.557068 
	C244.363892,839.726624 244.677307,839.896179 244.998596,840.001404 
	C244.998596,840.001404 244.934311,840.009277 245.050903,840.557007 
	C245.366043,840.726257 245.681183,840.895508 245.998871,841.002014 
	C245.998871,841.002014 245.938873,841.020813 246.219147,841.624084 
	C247.487732,842.432617 248.756317,843.241150 250.023636,843.969055 
	C250.023636,843.969055 249.943771,843.958191 250.375259,844.488647 
	C253.189270,847.237183 255.693253,850.433044 258.881165,852.641968 
	C265.727173,857.385681 272.925873,861.620483 279.997284,866.002991 
	C279.997284,866.002991 279.936798,866.020569 279.867554,866.638916 
	C280.239105,866.780151 280.610626,866.921387 280.993134,867.000122 
	C280.993134,867.000122 280.937500,867.030457 281.253754,867.628723 
	C283.512024,869.013916 285.650818,870.665222 288.047760,871.741638 
	C304.854309,879.289551 321.481049,887.313293 338.617249,894.032043 
	C358.951935,902.004822 380.325104,906.468811 401.846741,910.116638 
	C412.462708,911.915955 423.016998,914.077576 433.623871,915.934143 
	C434.719391,916.125854 435.983795,915.352783 437.949371,915.036560 
	C439.717438,915.712463 441.468933,916.909912 443.256653,916.966736 
	C448.640167,917.137695 454.037781,916.864685 460.194000,916.827332 
	C461.400391,917.514221 462.572205,918.727051 463.818329,918.809021 
	C481.504547,919.971558 499.200684,921.833618 516.894775,921.837708 
	C547.463196,921.844666 578.036560,920.825867 608.596924,919.881653 
	C615.384399,919.671936 622.126282,917.984924 629.819336,916.987915 
	C637.332703,916.684204 644.848816,916.430908 652.356018,916.015869 
	C653.343994,915.961182 654.286316,915.079773 655.997192,914.344116 
	C659.885498,913.910889 663.834473,913.774658 667.651794,912.994141 
	C686.797607,909.079285 705.938416,905.127869 725.010681,900.874207 
	C729.481812,899.877014 733.680176,897.656799 738.801758,895.960022 
	C740.048401,895.511719 741.295044,895.063416 743.235291,894.325195 
	C743.832031,894.380920 744.515930,894.656799 745.012756,894.460144 
	C756.919128,889.747559 769.064453,885.537354 780.641479,880.115295 
	C804.826660,868.788452 826.885315,854.153015 845.637817,834.959656 
	C850.805176,829.670776 855.270264,823.695740 860.000427,818.003113 
	C860.000427,818.003113 860.038635,818.056580 860.680908,817.899231 
	C861.476990,816.604004 862.273132,815.308777 863.005066,814.003235 
	C863.005066,814.003235 863.024963,814.065125 863.681824,813.884827 
	C867.144592,808.592346 870.607361,803.299866 874.003418,798.003296 
	C874.003418,798.003296 874.014465,798.069336 874.683533,797.944336 
	C875.897217,796.174316 877.340637,794.518616 878.287720,792.615967 
	C884.938721,779.253296 892.009766,766.064331 897.899597,752.369507 
	C902.398010,741.909729 905.649902,730.875061 908.896484,719.929993 
	C910.866882,713.287292 911.772034,706.328674 913.958496,699.098145 
	C915.583740,693.826538 918.828979,688.858521 917.647034,682.598816 
	C917.996338,682.242065 918.582947,681.929810 918.659424,681.521912 
	C919.837952,675.239685 921.207092,668.977295 922.002258,662.643799 
	C922.733215,656.822327 922.829529,650.921143 923.619080,644.163269 
	C924.372559,637.682068 925.126038,631.200806 926.287842,624.093689 
	C926.770386,622.788696 927.549316,621.510742 927.671326,620.172852 
	C927.897339,617.694214 927.587402,615.169678 927.766052,612.683289 
	C928.820679,598.008423 930.747864,583.346313 930.884033,568.666077 
	C931.134155,541.710327 930.389526,514.744141 929.905334,487.785034 
	C929.864502,485.513947 928.662048,483.263702 927.987183,480.077515 
	C927.680786,471.594086 927.403442,463.109314 927.025024,454.629120 
	C926.985229,453.737976 926.348877,452.873474 926.115723,451.096863 
	C925.087524,441.174225 924.705994,431.131683 922.893555,421.354401 
	C919.345947,402.216278 915.088196,383.206757 910.897217,364.194061 
	C910.206116,361.058655 908.359802,358.177887 907.012817,354.381165 
	C906.002441,351.585358 904.992065,348.789520 903.929016,345.159698 
	C903.735352,343.723175 903.805664,342.186188 903.303833,340.866882 
	C900.635803,333.852936 898.196045,326.716797 894.981140,319.953888 
	C889.231934,307.859863 883.017151,295.985962 876.899292,284.070190 
	C876.271851,282.848145 874.979858,281.967285 873.994507,281.001953 
	C873.994507,281.001953 874.068237,281.005341 874.060669,280.267609 
	C868.503540,272.295563 863.624878,263.721191 857.218018,256.503387 
	C849.139954,247.402817 839.814453,239.409592 831.002563,230.997467 
	C831.002563,230.997467 831.060608,230.971039 830.901184,230.310364 
	C808.890076,212.100754 784.120483,198.743576 757.403625,188.941330 
	C733.767090,180.269180 709.660522,173.152298 684.778625,169.033890 
	C674.613281,167.351349 664.333923,166.357574 653.245422,165.014984 
	C646.686523,163.997467 640.137268,162.911896 633.566162,161.980438 
	C626.132446,160.926697 618.704529,159.603271 611.227966,159.136368 
	C601.313782,158.517242 591.354797,158.614136 580.575684,158.482666 
	C571.413391,158.627090 562.251160,158.771515 551.938110,158.440018 
	C551.532837,158.350357 551.127502,158.260681 550.446594,158.226151 
	C550.446594,158.226151 550.227051,158.401810 549.278198,158.216217 
	C540.430420,158.309753 531.582642,158.403305 522.093628,158.348038 
	C520.787903,158.692505 519.482117,159.036972 517.294983,159.221664 
	C515.253723,159.175705 513.212524,159.129745 510.260803,159.041000 
	C495.636963,159.660278 480.875885,158.590729 465.957062,162.718475 
	C457.050476,161.208542 448.328094,161.782608 438.901489,165.190613 
	C438.600800,165.294479 438.300140,165.398361 437.563538,165.636322 
	C436.859589,165.704758 436.155609,165.773193 434.523193,165.897125 
	C431.017426,166.435287 427.511627,166.973450 423.229858,167.493271 
	C415.005646,168.303024 406.653625,168.468582 398.586426,170.069565 
	C385.629639,172.640900 372.861206,176.161377 359.217712,179.253510 
	C349.868835,182.170883 340.435303,184.844330 331.187286,188.052475 
	C305.760132,196.873184 282.245392,209.392120 260.603638,225.393005 
	C259.963928,225.865997 259.903931,227.123093 258.771332,227.978958 
	C257.847626,228.652283 256.923920,229.325607 255.319702,229.976151 
	C254.194199,230.973419 253.068710,231.970703 251.997864,232.998276 
	C251.997864,232.998276 251.972458,232.941162 251.274521,232.993622 
	C244.832031,239.316742 238.389542,245.639862 231.999649,251.998856 
	C231.999649,251.998856 231.961716,251.947647 231.312668,252.099869 
	C230.190445,253.749710 229.068222,255.399536 228.026398,257.028748 
	C228.026398,257.028748 228.017532,256.946198 227.323929,256.953766 
	C220.861328,266.296478 214.398727,275.639160 207.997482,284.996246 
	C207.997482,284.996246 207.977310,284.936584 207.319168,285.091064 
	C205.184875,288.637482 202.933151,292.119110 200.935822,295.741058 
	C190.014252,315.546265 182.201294,336.623291 175.646057,358.197021 
	C174.936264,360.533020 174.787582,363.039459 174.154556,366.293365 
	C174.110519,367.147644 174.066483,368.001923 173.241287,368.986969 
	C172.887283,369.293396 172.287964,369.550232 172.214539,369.913391 
	C168.839554,386.606659 165.510513,403.309204 162.035507,420.847382 
	C161.342941,426.878052 160.580429,432.901672 159.975418,438.941132 
	C159.206360,446.618256 158.486603,454.302094 157.888901,461.994171 
	C157.189713,470.992279 156.644913,480.002411 155.843628,489.780426 
	C155.558960,500.854828 155.274292,511.929260 154.764679,523.890381 
	C154.860138,526.932678 154.955597,529.974915 154.746933,533.655701 
	C154.848297,535.764709 154.949677,537.873779 154.798203,540.864502 
	C154.859161,543.907410 154.920120,546.950317 154.712845,550.713318 
	C154.809586,553.809326 154.906326,556.905273 154.900772,560.933594 
	C155.227341,573.307861 155.547089,585.682373 155.900146,598.055908 
	C155.918243,598.689758 156.222229,599.315491 156.741882,600.700562 
	C158.144135,616.237610 159.092865,631.833008 161.080780,647.294800 
	C162.935364,661.719482 165.552826,676.072266 168.474915,690.325378 
	C170.825439,701.790466 173.885117,713.130066 177.099686,724.391357 
	C179.374832,732.361694 182.434021,740.108154 185.298264,748.672363 
	C191.590790,762.209473 197.781586,775.795532 204.257339,789.244385 
	C205.636368,792.108276 208.052505,794.472839 209.999863,796.999878 
	C209.999863,796.999878 209.931793,796.997253 209.957443,797.732544 
	C212.633057,801.510315 215.308655,805.288147 217.998077,809.003357 
	C217.998077,809.003357 217.934509,809.011658 217.961014,809.726013 
	C221.970428,814.506531 225.979828,819.287048 229.998779,824.004089 
	C229.998779,824.004089 229.935745,824.016357 229.815353,824.726990 
	C232.869049,827.838318 235.922745,830.949585 238.996338,834.001465 
	C238.996338,834.001465 238.934235,834.009888 239.020187,834.575195 
	C239.343338,834.738708 239.666489,834.902222 239.998291,835.001709 
z"/>
<path fill="#E4E5E4" opacity="1.000000" stroke="none" 
	d="
M925.989319,451.996613 
	C926.348877,452.873474 926.985229,453.737976 927.025024,454.629120 
	C927.403442,463.109314 927.680786,471.594086 927.880371,480.868958 
	C930.725586,529.394226 929.427368,577.071838 925.879517,624.719604 
	C925.126038,631.200806 924.372559,637.682068 923.246216,644.743469 
	C922.391174,648.100891 921.863342,650.871033 921.434814,653.656555 
	C919.933777,663.413879 918.466919,673.176575 916.987061,682.937195 
	C918.828979,688.858521 915.583740,693.826538 913.438660,699.541504 
	C912.649780,700.571106 912.285278,701.132385 912.125427,701.746887 
	C903.547974,734.718689 892.655273,766.757874 874.386414,795.846375 
	C874.017578,796.433594 874.127747,797.321655 874.014404,798.069336 
	C874.014465,798.069336 874.003418,798.003296 873.696228,797.872437 
	C869.934326,803.182739 866.479614,808.623901 863.024963,814.065125 
	C863.024963,814.065125 863.005066,814.003235 862.681396,813.827026 
	C861.584717,815.119446 860.811707,816.588013 860.038696,818.056580 
	C860.038635,818.056580 860.000427,818.003113 859.747803,817.744019 
	C850.550171,826.597717 842.110413,836.282837 832.561890,844.712097 
	C807.423828,866.903748 777.887695,881.413391 746.391235,892.246033 
	C745.000854,892.724121 743.820068,893.811523 742.541626,894.615112 
	C741.295044,895.063416 740.048401,895.511719 737.987366,895.911255 
	C736.355469,895.920410 735.514465,895.873535 734.723938,896.051392 
	C711.970093,901.170471 689.215454,906.286194 666.477600,911.475342 
	C662.695740,912.338501 658.990417,913.537476 655.249756,914.581238 
	C654.286316,915.079773 653.343994,915.961182 652.356018,916.015869 
	C644.848816,916.430908 637.332703,916.684204 629.091064,916.793823 
	C625.060059,916.826477 621.760010,917.102905 618.454346,917.271545 
	C600.494019,918.188110 582.540649,919.372253 564.568359,919.886230 
	C549.615967,920.313782 534.640442,919.904175 519.675659,919.965454 
	C517.253723,919.975342 514.806519,920.899536 512.417419,920.733521 
	C494.748322,919.505676 477.090973,918.108643 459.429901,916.764832 
	C454.037781,916.864685 448.640167,917.137695 443.256653,916.966736 
	C441.468933,916.909912 439.717438,915.712463 437.379791,914.687500 
	C422.086548,911.832642 407.273102,909.760925 392.656738,906.736572 
	C354.726959,898.888367 317.976227,887.603210 284.337311,867.739929 
	C283.393494,867.182617 282.079102,867.252869 280.937500,867.030457 
	C280.937500,867.030457 280.993134,867.000122 281.173553,866.667664 
	C280.881592,866.230347 280.409180,866.125488 279.936798,866.020569 
	C279.936798,866.020569 279.997284,866.002991 280.065247,865.687500 
	C274.295502,861.357910 268.418823,857.398865 262.632874,853.311401 
	C258.342072,850.280151 254.169174,847.082031 249.943756,843.958191 
	C249.943771,843.958191 250.023636,843.969055 250.013474,843.647949 
	C248.648499,842.558167 247.293671,841.789490 245.938873,841.020813 
	C245.938873,841.020813 245.998871,841.002014 246.150116,840.646851 
	C245.845688,840.197571 245.389999,840.103455 244.934311,840.009277 
	C244.934311,840.009277 244.998596,840.001404 245.143066,839.649719 
	C244.836502,839.202576 244.385483,839.107178 243.934479,839.011719 
	C243.934479,839.011719 243.996124,839.001221 244.205994,838.677490 
	C243.589600,837.908875 242.763336,837.463928 241.937073,837.018921 
	C241.937088,837.018921 241.998154,837.003052 242.131744,836.659180 
	C241.821625,836.213318 241.377884,836.111389 240.934143,836.009521 
	C240.934143,836.009521 240.998322,836.001526 241.122711,835.658447 
	C240.809494,835.213684 240.371887,835.111877 239.934296,835.010132 
	C239.934296,835.010132 239.998291,835.001709 240.121887,834.659180 
	C239.808380,834.214417 239.371307,834.112183 238.934235,834.009888 
	C238.934235,834.009888 238.996338,834.001465 239.186569,833.708740 
	C236.229782,830.282837 233.082779,827.149597 229.935760,824.016357 
	C229.935745,824.016357 229.998779,824.004089 230.088348,823.684570 
	C226.096786,818.580627 222.015640,813.796143 217.934509,809.011658 
	C217.934509,809.011658 217.998077,809.003357 218.175980,808.696655 
	C215.546524,804.592407 212.739166,800.794800 209.931793,796.997253 
	C209.931793,796.997253 209.999863,796.999878 210.158813,796.681641 
	C202.424744,780.201843 194.531723,764.040344 186.527008,747.495605 
	C173.926071,712.247437 166.109131,676.313904 161.881714,639.566650 
	C160.363495,626.369385 158.964417,613.158508 157.526764,599.487244 
	C156.971436,586.028992 156.400330,573.037231 155.918533,559.595947 
	C155.939178,556.101440 155.870514,553.056519 155.873901,549.560791 
	C155.875107,546.067749 155.804276,543.025452 155.805176,539.552124 
	C155.829147,537.086304 155.781372,535.051392 155.817444,532.567505 
	C155.865189,529.074890 155.829117,526.031372 155.863098,522.526733 
	C156.256607,511.041534 156.580078,500.017395 156.979218,488.580536 
	C159.342697,465.446838 161.630524,442.725891 164.021790,419.624268 
	C165.424301,412.112640 166.636902,404.964508 168.043518,397.854797 
	C169.958939,388.173248 172.022446,378.520996 174.022430,368.856201 
	C174.066483,368.001923 174.110519,367.147644 174.503113,365.725708 
	C175.455200,363.822754 176.220779,362.536072 176.638260,361.144958 
	C184.229279,335.849609 193.466049,311.248138 206.984085,288.423279 
	C207.579651,287.417664 207.658020,286.105804 207.977325,284.936584 
	C207.977310,284.936584 207.997482,284.996246 208.294861,285.173279 
	C211.465805,281.127411 214.330948,276.898773 217.215057,272.683105 
	C220.807678,267.431854 224.415985,262.191345 228.017517,256.946198 
	C228.017532,256.946198 228.026398,257.028748 228.255188,256.808655 
	C229.643234,255.041565 230.802475,253.494598 231.961716,251.947647 
	C231.961716,251.947647 231.999649,251.998856 232.261780,252.250793 
	C238.649200,246.731201 244.790710,240.976685 250.872650,235.159851 
	C251.433548,234.623428 251.614883,233.690155 251.972443,232.941162 
	C251.972458,232.941162 251.997864,232.998276 252.270660,233.220566 
	C253.695724,232.294891 254.847977,231.146927 256.000244,229.998962 
	C256.923920,229.325607 257.847626,228.652283 259.218262,227.807709 
	C260.909393,226.876465 262.220032,226.206451 263.387848,225.343185 
	C284.587555,209.671494 308.006714,198.244019 332.688904,189.301254 
	C341.725616,186.027115 350.940063,183.243469 360.487549,180.230347 
	C362.032104,179.989151 363.161102,179.746887 364.293091,179.519211 
	C384.197144,175.515610 404.101532,171.513794 424.005859,167.511597 
	C427.511627,166.973450 431.017426,166.435287 435.184143,165.745178 
	C436.563202,165.562881 437.281311,165.532547 437.999451,165.502228 
	C438.300140,165.398361 438.600800,165.294479 439.823364,165.107986 
	C449.339203,164.215179 457.933136,163.404999 466.527100,162.594803 
	C480.875885,158.590729 495.636963,159.660278 510.916504,159.400299 
	C513.768799,159.687439 515.965454,159.615280 518.573853,159.616959 
	C520.308960,159.398773 521.632446,159.106735 523.302429,159.048553 
	C532.499084,159.035034 541.349182,158.787674 550.328735,158.602554 
	C550.640930,158.551208 550.728943,158.386612 550.722229,158.171005 
	C551.127502,158.260681 551.532837,158.350357 552.572021,158.876862 
	C559.504456,159.477081 565.805298,159.814087 572.100525,159.729965 
	C575.210754,159.688431 578.310547,158.870178 581.415100,158.403351 
	C591.354797,158.614136 601.313782,158.517242 611.227966,159.136368 
	C618.704529,159.603271 626.132446,160.926697 633.566162,161.980438 
	C640.137268,162.911896 646.686523,163.997467 653.792786,165.391785 
	C672.956604,169.237244 691.733093,172.019302 710.157471,176.312500 
	C753.186462,186.338974 793.551147,202.548065 828.610474,230.251358 
	C829.229919,230.740875 830.235291,230.742020 831.060608,230.971039 
	C831.060608,230.971039 831.002563,230.997467 830.791626,231.277405 
	C847.039734,245.624954 860.818298,262.003937 872.552002,280.155548 
	C872.830078,280.585754 873.552856,280.728546 874.068237,281.005341 
	C874.068237,281.005341 873.994507,281.001953 873.886047,281.326721 
	C880.497620,294.819031 887.464294,307.868500 893.845642,321.198151 
	C897.694580,329.238190 900.633728,337.713837 903.981689,345.993713 
	C904.992065,348.789520 906.002441,351.585358 906.999023,355.180206 
	C907.091492,356.794189 907.090454,357.640808 907.319763,358.419525 
	C914.301453,382.130920 919.095337,406.287720 922.328125,430.782379 
	C923.266296,437.891022 924.753723,444.927216 925.989319,451.996613 
M787.175537,624.829956 
	C787.175537,624.829956 787.211243,624.757874 787.061157,624.090881 
	C780.370239,614.696350 771.991943,607.631714 760.134766,604.409668 
	C759.766785,604.327515 759.398804,604.245422 758.435852,603.933350 
	C757.806091,603.901184 757.176331,603.869080 756.048828,603.334473 
	C755.366516,603.232788 754.684265,603.131104 753.230896,602.741577 
	C749.825378,602.542114 746.419922,602.342590 742.134399,601.985107 
	C733.028809,602.074768 724.425781,604.262878 716.800476,609.202209 
	C711.598389,612.571838 706.901001,616.720520 701.410400,620.072083 
	C676.293640,605.366333 651.176880,590.660583 626.124573,575.223877 
	C631.249146,562.890625 634.011536,549.924377 632.699829,536.733521 
	C631.608948,525.763794 628.407654,515.003906 626.767273,503.854248 
	C651.819824,489.094574 676.872375,474.334869 702.608032,459.808289 
	C709.037964,464.326294 715.467957,468.844330 722.405090,473.826782 
	C742.044800,481.644806 760.491821,479.531891 777.329407,466.662445 
	C794.824341,453.290466 801.981812,426.909424 793.858948,406.287018 
	C785.725769,387.175812 771.919739,375.275177 750.075134,372.322296 
	C744.443665,372.543335 738.676514,372.057892 733.204285,373.108398 
	C710.273254,377.510803 692.159729,397.455017 690.658142,419.753967 
	C691.109680,426.764191 691.561218,433.774445 691.329834,441.040558 
	C665.878357,455.895996 640.426880,470.751434 614.299805,485.348053 
	C606.924683,476.980072 599.048584,469.206451 588.585083,463.471375 
	C581.031311,460.318970 573.569031,456.914429 565.884094,454.123230 
	C562.180176,452.777954 558.056580,452.588013 554.155762,450.963440 
	C554.134583,421.420135 554.113403,391.876801 554.867004,362.178131 
	C581.667664,355.609161 598.209839,334.086639 596.805908,306.632111 
	C595.674866,284.512390 579.766724,261.889191 551.183472,257.024445 
	C546.394409,256.999512 541.575928,256.617188 536.821289,257.009552 
	C512.162598,259.044678 490.214508,283.195679 490.072205,308.771729 
	C490.115875,309.494507 490.159515,310.217285 490.070648,311.686920 
	C490.148743,312.435913 490.226807,313.184875 490.228119,314.730591 
	C493.881927,340.125305 507.858459,356.206940 532.954102,363.078430 
	C532.959961,392.698120 532.965881,422.317841 532.158447,452.100250 
	C520.487305,453.473328 509.576721,457.030396 499.326721,462.870392 
	C488.808075,468.863495 480.150970,476.959442 471.453400,485.290833 
	C445.989288,470.506226 420.525177,455.721619 394.998352,440.142151 
	C395.353882,437.761749 395.709412,435.381378 396.421692,432.254120 
	C396.113922,425.650696 396.982178,418.726959 395.286377,412.501617 
	C389.274475,390.431488 374.733948,376.323242 352.076263,372.545959 
	C329.641541,368.805786 311.119629,377.066986 298.529297,395.941467 
	C286.333710,414.224243 286.357635,433.793976 297.710052,452.506012 
	C305.959534,466.103455 317.943634,475.333862 335.121887,477.614807 
	C336.400726,477.696625 337.679596,477.778442 339.629059,478.017731 
	C340.085083,477.989014 340.541107,477.960327 341.903259,478.104584 
	C352.615204,478.432068 362.768829,476.252838 371.717560,470.271881 
	C376.496735,467.077698 380.656738,462.957062 385.667389,459.709076 
	C410.788391,474.522644 435.909363,489.336212 461.028229,504.920746 
	C459.961090,509.218719 458.637604,513.472229 457.883301,517.824402 
	C456.550323,525.515991 455.563904,533.267578 454.238098,541.829651 
	C454.309937,543.144470 454.207825,544.496765 454.481262,545.768250 
	C456.653992,555.870361 458.898041,565.957092 460.624847,576.542297 
	C435.401917,591.177795 410.178986,605.813232 384.282440,620.225952 
	C377.885193,615.693848 371.487915,611.161682 364.497253,606.201599 
	C361.442078,605.171082 358.443665,603.907288 355.322540,603.147522 
	C333.153900,597.750916 308.139160,608.248657 297.084320,628.246460 
	C287.004852,646.479919 286.575378,664.960449 298.150452,683.706726 
	C304.889893,694.438110 314.070465,701.953064 327.109711,705.729553 
	C329.500092,706.267578 331.868622,706.946289 334.284302,707.321472 
	C353.788452,710.350403 370.500458,704.766846 383.705841,690.146179 
	C397.031555,675.392273 399.683228,657.921814 395.686432,638.716858 
	C396.695679,638.140076 397.707001,637.566956 398.713837,636.985962 
	C423.188202,622.863098 447.662079,608.739380 472.803497,594.820923 
	C473.715912,595.758057 474.679016,596.651367 475.533020,597.639038 
	C484.793365,608.348389 495.940063,616.424622 509.711914,622.115417 
	C517.493103,624.145325 525.274353,626.175232 533.003601,629.097778 
	C533.041809,658.667358 533.080017,688.237000 532.312683,717.980164 
	C503.831573,722.152405 482.974945,756.515198 492.220459,784.734253 
	C492.514404,785.678406 492.751404,786.644897 493.110840,787.563416 
	C498.286591,800.789368 506.427887,811.365173 519.847473,817.253845 
	C519.847473,817.253845 519.785217,817.169434 519.980347,817.682190 
	C520.317444,817.801392 520.654541,817.920593 521.480042,818.546631 
	C533.798279,824.371704 546.537659,824.768921 559.397278,820.968506 
	C596.378784,810.038879 605.615295,767.574768 589.184448,742.183472 
	C581.549011,730.424377 571.572998,721.848511 557.113586,718.472534 
	C556.768799,718.423889 556.423950,718.375305 555.516113,718.100952 
	C555.128052,717.995850 554.739929,717.890747 554.353027,716.889221 
	C554.298340,687.328430 554.243652,657.767639 554.998779,628.113220 
	C571.238647,625.541626 586.167664,619.700134 599.100830,609.477844 
	C604.781067,604.988159 609.786682,599.644897 615.773071,594.948425 
	C631.990601,604.397095 648.237061,613.796387 664.414368,623.313354 
	C673.678040,628.762939 682.829163,634.403748 692.006775,640.786926 
	C691.383240,645.193787 690.759705,649.600586 690.015198,654.867310 
	C690.857056,666.226379 692.864990,677.181091 701.133850,686.676331 
	C708.173218,696.338745 717.508240,702.663086 729.718445,706.204285 
	C751.604126,711.872986 773.182434,704.686768 786.164795,687.236145 
	C795.790710,674.297180 799.381287,659.915649 795.960144,643.214355 
	C794.329163,639.131775 792.698181,635.049255 790.976379,630.307129 
	C790.014038,628.862976 789.051697,627.418823 787.952209,625.442444 
	C787.666504,625.237122 787.380859,625.031799 787.175537,624.829956 
z"/>
<path fill="#53585D" opacity="1.000000" stroke="none" 
	d="
M830.980896,230.640701 
	C830.235291,230.742020 829.229919,230.740875 828.610474,230.251358 
	C793.551147,202.548065 753.186462,186.338974 710.157471,176.312500 
	C691.733093,172.019302 672.956604,169.237244 654.223267,165.409515 
	C664.333923,166.357574 674.613281,167.351349 684.778625,169.033890 
	C709.660522,173.152298 733.767090,180.269180 757.403625,188.941330 
	C784.120483,198.743576 808.890076,212.100754 830.980896,230.640701 
z"/>
<path fill="#494E56" opacity="1.000000" stroke="none" 
	d="
M281.095642,867.329590 
	C282.079102,867.252869 283.393494,867.182617 284.337311,867.739929 
	C317.976227,887.603210 354.726959,898.888367 392.656738,906.736572 
	C407.273102,909.760925 422.086548,911.832642 436.990021,914.682861 
	C435.983795,915.352783 434.719391,916.125854 433.623871,915.934143 
	C423.016998,914.077576 412.462708,911.915955 401.846741,910.116638 
	C380.325104,906.468811 358.951935,902.004822 338.617249,894.032043 
	C321.481049,887.313293 304.854309,879.289551 288.047760,871.741638 
	C285.650818,870.665222 283.512024,869.013916 281.095642,867.329590 
z"/>
<path fill="#595E64" opacity="1.000000" stroke="none" 
	d="
M459.811951,916.796082 
	C477.090973,918.108643 494.748322,919.505676 512.417419,920.733521 
	C514.806519,920.899536 517.253723,919.975342 519.675659,919.965454 
	C534.640442,919.904175 549.615967,920.313782 564.568359,919.886230 
	C582.540649,919.372253 600.494019,918.188110 618.454346,917.271545 
	C621.760010,917.102905 625.060059,916.826477 628.625977,916.788940 
	C622.126282,917.984924 615.384399,919.671936 608.596924,919.881653 
	C578.036560,920.825867 547.463196,921.844666 516.894775,921.837708 
	C499.200684,921.833618 481.504547,919.971558 463.818329,918.809021 
	C462.572205,918.727051 461.400391,917.514221 459.811951,916.796082 
z"/>
<path fill="#494E56" opacity="1.000000" stroke="none" 
	d="
M157.510971,599.953796 
	C158.964417,613.158508 160.363495,626.369385 161.881714,639.566650 
	C166.109131,676.313904 173.926071,712.247437 186.152832,747.514343 
	C185.641296,747.929016 185.392242,747.941833 185.143188,747.954590 
	C182.434021,740.108154 179.374832,732.361694 177.099686,724.391357 
	C173.885117,713.130066 170.825439,701.790466 168.474915,690.325378 
	C165.552826,676.072266 162.935364,661.719482 161.080780,647.294800 
	C159.092865,631.833008 158.144135,616.237610 156.847275,600.283936 
	C157.138763,599.896118 157.324860,599.924927 157.510971,599.953796 
z"/>
<path fill="#494E56" opacity="1.000000" stroke="none" 
	d="
M742.888428,894.470154 
	C743.820068,893.811523 745.000854,892.724121 746.391235,892.246033 
	C777.887695,881.413391 807.423828,866.903748 832.561890,844.712097 
	C842.110413,836.282837 850.550171,826.597717 859.776367,817.760254 
	C855.270264,823.695740 850.805176,829.670776 845.637817,834.959656 
	C826.885315,854.153015 804.826660,868.788452 780.641479,880.115295 
	C769.064453,885.537354 756.919128,889.747559 745.012756,894.460144 
	C744.515930,894.656799 743.832031,894.380920 742.888428,894.470154 
z"/>
<path fill="#53585D" opacity="1.000000" stroke="none" 
	d="
M926.083679,624.406616 
	C929.427368,577.071838 930.725586,529.394226 927.886353,481.332092 
	C928.662048,483.263702 929.864502,485.513947 929.905334,487.785034 
	C930.389526,514.744141 931.134155,541.710327 930.884033,568.666077 
	C930.747864,583.346313 928.820679,598.008423 927.766052,612.683289 
	C927.587402,615.169678 927.897339,617.694214 927.671326,620.172852 
	C927.549316,621.510742 926.770386,622.788696 926.083679,624.406616 
z"/>
<path fill="#595E64" opacity="1.000000" stroke="none" 
	d="
M360.073425,180.236053 
	C350.940063,183.243469 341.725616,186.027115 332.688904,189.301254 
	C308.006714,198.244019 284.587555,209.671494 263.387848,225.343185 
	C262.220032,226.206451 260.909393,226.876465 259.619415,227.825531 
	C259.903931,227.123093 259.963928,225.865997 260.603638,225.393005 
	C282.245392,209.392120 305.760132,196.873184 331.187286,188.052475 
	C340.435303,184.844330 349.868835,182.170883 359.632172,179.505859 
	C360.046631,179.758209 360.073425,180.236053 360.073425,180.236053 
z"/>
<path fill="#494E56" opacity="1.000000" stroke="none" 
	d="
M874.348999,798.006836 
	C874.127747,797.321655 874.017578,796.433594 874.386414,795.846375 
	C892.655273,766.757874 903.547974,734.718689 912.125427,701.746887 
	C912.285278,701.132385 912.649780,700.571106 913.037354,699.748413 
	C911.772034,706.328674 910.866882,713.287292 908.896484,719.929993 
	C905.649902,730.875061 902.398010,741.909729 897.899597,752.369507 
	C892.009766,766.064331 884.938721,779.253296 878.287720,792.615967 
	C877.340637,794.518616 875.897217,796.174316 874.348999,798.006836 
z"/>
<path fill="#494E56" opacity="1.000000" stroke="none" 
	d="
M926.052490,451.546753 
	C924.753723,444.927216 923.266296,437.891022 922.328125,430.782379 
	C919.095337,406.287720 914.301453,382.130920 907.319763,358.419525 
	C907.090454,357.640808 907.091492,356.794189 907.016235,355.579346 
	C908.359802,358.177887 910.206116,361.058655 910.897217,364.194061 
	C915.088196,383.206757 919.345947,402.216278 922.893555,421.354401 
	C924.705994,431.131683 925.087524,441.174225 926.052490,451.546753 
z"/>
<path fill="#53585D" opacity="1.000000" stroke="none" 
	d="
M207.648254,285.013824 
	C207.658020,286.105804 207.579651,287.417664 206.984085,288.423279 
	C193.466049,311.248138 184.229279,335.849609 176.638260,361.144958 
	C176.220779,362.536072 175.455200,363.822754 174.615143,365.312439 
	C174.787582,363.039459 174.936264,360.533020 175.646057,358.197021 
	C182.201294,336.623291 190.014252,315.546265 200.935822,295.741058 
	C202.933151,292.119110 205.184875,288.637482 207.648254,285.013824 
z"/>
<path fill="#494E56" opacity="1.000000" stroke="none" 
	d="
M655.623474,914.462646 
	C658.990417,913.537476 662.695740,912.338501 666.477600,911.475342 
	C689.215454,906.286194 711.970093,901.170471 734.723938,896.051392 
	C735.514465,895.873535 736.355469,895.920410 737.588501,895.930908 
	C733.680176,897.656799 729.481812,899.877014 725.010681,900.874207 
	C705.938416,905.127869 686.797607,909.079285 667.651794,912.994141 
	C663.834473,913.774658 659.885498,913.910889 655.623474,914.462646 
z"/>
<path fill="#494E56" opacity="1.000000" stroke="none" 
	d="
M903.955322,345.576721 
	C900.633728,337.713837 897.694580,329.238190 893.845642,321.198151 
	C887.464294,307.868500 880.497620,294.819031 873.886841,281.289795 
	C874.979858,281.967285 876.271851,282.848145 876.899292,284.070190 
	C883.017151,295.985962 889.231934,307.859863 894.981140,319.953888 
	C898.196045,326.716797 900.635803,333.852936 903.303833,340.866882 
	C903.805664,342.186188 903.735352,343.723175 903.955322,345.576721 
z"/>
<path fill="#53585D" opacity="1.000000" stroke="none" 
	d="
M874.064453,280.636475 
	C873.552856,280.728546 872.830078,280.585754 872.552002,280.155548 
	C860.818298,262.003937 847.039734,245.624954 830.803894,231.248001 
	C839.814453,239.409592 849.139954,247.402817 857.218018,256.503387 
	C863.624878,263.721191 868.503540,272.295563 874.064453,280.636475 
z"/>
<path fill="#53585D" opacity="1.000000" stroke="none" 
	d="
M360.487549,180.230347 
	C360.073425,180.236053 360.046631,179.758209 360.029907,179.519501 
	C372.861206,176.161377 385.629639,172.640900 398.586426,170.069565 
	C406.653625,168.468582 415.005646,168.303024 423.617859,167.502441 
	C404.101532,171.513794 384.197144,175.515610 364.293091,179.519211 
	C363.161102,179.746887 362.032104,179.989151 360.487549,180.230347 
z"/>
<path fill="#494E56" opacity="1.000000" stroke="none" 
	d="
M163.918335,420.004913 
	C161.630524,442.725891 159.342697,465.446838 156.761658,488.586578 
	C156.468414,489.005341 156.033142,489.007324 156.033142,489.007324 
	C156.644913,480.002411 157.189713,470.992279 157.888901,461.994171 
	C158.486603,454.302094 159.206360,446.618256 159.975418,438.941132 
	C160.580429,432.901672 161.342941,426.878052 162.396194,420.422791 
	C163.144043,420.000458 163.531189,420.002686 163.918335,420.004913 
z"/>
<path fill="#53585D" opacity="1.000000" stroke="none" 
	d="
M185.220734,748.313477 
	C185.392242,747.941833 185.641296,747.929016 186.264542,747.897461 
	C194.531723,764.040344 202.424744,780.201843 210.154297,796.715393 
	C208.052505,794.472839 205.636368,792.108276 204.257339,789.244385 
	C197.781586,775.795532 191.590790,762.209473 185.220734,748.313477 
z"/>
<path fill="#53585D" opacity="1.000000" stroke="none" 
	d="
M164.021790,419.624268 
	C163.531189,420.002686 163.144043,420.000458 162.466507,420.004456 
	C165.510513,403.309204 168.839554,386.606659 172.214539,369.913391 
	C172.287964,369.550232 172.887283,369.293396 173.631866,368.921570 
	C172.022446,378.520996 169.958939,388.173248 168.043518,397.854797 
	C166.636902,404.964508 165.424301,412.112640 164.021790,419.624268 
z"/>
<path fill="#53585D" opacity="1.000000" stroke="none" 
	d="
M917.317017,682.768005 
	C918.466919,673.176575 919.933777,663.413879 921.434814,653.656555 
	C921.863342,650.871033 922.391174,648.100891 923.039429,645.189392 
	C922.829529,650.921143 922.733215,656.822327 922.002258,662.643799 
	C921.207092,668.977295 919.837952,675.239685 918.659424,681.521912 
	C918.582947,681.929810 917.996338,682.242065 917.317017,682.768005 
z"/>
<path fill="#595E64" opacity="1.000000" stroke="none" 
	d="
M250.159515,844.223389 
	C254.169174,847.082031 258.342072,850.280151 262.632874,853.311401 
	C268.418823,857.398865 274.295502,861.357910 280.056702,865.717834 
	C272.925873,861.620483 265.727173,857.385681 258.881165,852.641968 
	C255.693253,850.433044 253.189270,847.237183 250.159515,844.223389 
z"/>
<path fill="#53585D" opacity="1.000000" stroke="none" 
	d="
M155.938385,489.393860 
	C156.033142,489.007324 156.468414,489.005341 156.685974,488.999298 
	C156.580078,500.017395 156.256607,511.041534 155.662170,522.527222 
	C155.391190,522.988770 154.989609,523.003662 154.989609,523.003662 
	C155.274292,511.929260 155.558960,500.854828 155.938385,489.393860 
z"/>
<path fill="#53585D" opacity="1.000000" stroke="none" 
	d="
M227.670715,256.949982 
	C224.415985,262.191345 220.807678,267.431854 217.215057,272.683105 
	C214.330948,276.898773 211.465805,281.127411 208.264175,285.166077 
	C214.398727,275.639160 220.861328,266.296478 227.670715,256.949982 
z"/>
<path fill="#29323B" opacity="1.000000" stroke="none" 
	d="
M157.526764,599.487244 
	C157.324860,599.924927 157.138763,599.896118 156.672882,599.906128 
	C156.222229,599.315491 155.918243,598.689758 155.900146,598.055908 
	C155.547089,585.682373 155.227341,573.307861 155.157684,560.492798 
	C155.414612,560.051941 155.829208,560.045532 155.829208,560.045532 
	C156.400330,573.037231 156.971436,586.028992 157.526764,599.487244 
z"/>
<path fill="#45C070" opacity="1.000000" stroke="none" 
	d="
M580.995361,158.443008 
	C578.310547,158.870178 575.210754,159.688431 572.100525,159.729965 
	C565.805298,159.814087 559.504456,159.477081 553.147400,159.114822 
	C562.251160,158.771515 571.413391,158.627090 580.995361,158.443008 
z"/>
<path fill="#595E64" opacity="1.000000" stroke="none" 
	d="
M251.623474,232.967392 
	C251.614883,233.690155 251.433548,234.623428 250.872650,235.159851 
	C244.790710,240.976685 238.649200,246.731201 232.235489,252.232849 
	C238.389542,245.639862 244.832031,239.316742 251.623474,232.967392 
z"/>
<path fill="#53585D" opacity="1.000000" stroke="none" 
	d="
M217.947754,809.368835 
	C222.015640,813.796143 226.096786,818.580627 230.083588,823.716309 
	C225.979828,819.287048 221.970428,814.506531 217.947754,809.368835 
z"/>
<path fill="#53585D" opacity="1.000000" stroke="none" 
	d="
M466.242065,162.656647 
	C457.933136,163.404999 449.339203,164.215179 440.293518,165.026184 
	C448.328094,161.782608 457.050476,161.208542 466.242065,162.656647 
z"/>
<path fill="#494E56" opacity="1.000000" stroke="none" 
	d="
M863.353394,813.974976 
	C866.479614,808.623901 869.934326,803.182739 873.729614,797.874451 
	C870.607361,803.299866 867.144592,808.592346 863.353394,813.974976 
z"/>
<path fill="#595E64" opacity="1.000000" stroke="none" 
	d="
M550.199280,158.540314 
	C541.349182,158.787674 532.499084,159.035034 523.302124,158.988373 
	C522.955322,158.694351 522.734863,158.496857 522.734863,158.496857 
	C531.582642,158.403305 540.430420,158.309753 549.699585,158.336426 
	C550.120972,158.456635 550.199280,158.540314 550.199280,158.540314 
z"/>
<path fill="#53585D" opacity="1.000000" stroke="none" 
	d="
M209.944626,797.364868 
	C212.739166,800.794800 215.546524,804.592407 218.169067,808.727966 
	C215.308655,805.288147 212.633057,801.510315 209.944626,797.364868 
z"/>
<path fill="#595E64" opacity="1.000000" stroke="none" 
	d="
M229.875565,824.371704 
	C233.082779,827.149597 236.229782,830.282837 239.176620,833.738464 
	C235.922745,830.949585 232.869049,827.838318 229.875565,824.371704 
z"/>
<path fill="#53585D" opacity="1.000000" stroke="none" 
	d="
M155.918533,559.595947 
	C155.829208,560.045532 155.414612,560.051941 155.208832,560.026611 
	C154.906326,556.905273 154.809586,553.809326 155.052063,550.361267 
	C155.391296,550.009216 155.801834,550.011597 155.801834,550.011597 
	C155.870514,553.056519 155.939178,556.101440 155.918533,559.595947 
z"/>
<path fill="#53585D" opacity="1.000000" stroke="none" 
	d="
M155.733612,533.016541 
	C155.781372,535.051392 155.829147,537.086304 155.634583,539.547607 
	C155.392258,539.973999 155.051056,539.982788 155.051056,539.982788 
	C154.949677,537.873779 154.848297,535.764709 155.069641,533.340820 
	C155.392349,533.025879 155.733612,533.016541 155.733612,533.016541 
z"/>
<path fill="#595E64" opacity="1.000000" stroke="none" 
	d="
M231.637192,252.023758 
	C230.802475,253.494598 229.643234,255.041565 228.214996,256.818970 
	C229.068222,255.399536 230.190445,253.749710 231.637192,252.023758 
z"/>
<path fill="#595E64" opacity="1.000000" stroke="none" 
	d="
M154.924622,540.423645 
	C155.051056,539.982788 155.392258,539.973999 155.562851,539.978577 
	C155.804276,543.025452 155.875107,546.067749 155.873901,549.560791 
	C155.801834,550.011597 155.391296,550.009216 155.186188,550.001221 
	C154.920120,546.950317 154.859161,543.907410 154.924622,540.423645 
z"/>
<path fill="#595E64" opacity="1.000000" stroke="none" 
	d="
M155.817444,532.567505 
	C155.733612,533.016541 155.392349,533.025879 155.221695,533.021545 
	C154.955597,529.974915 154.860138,526.932678 154.877136,523.447021 
	C154.989609,523.003662 155.391190,522.988770 155.592117,522.988281 
	C155.829117,526.031372 155.865189,529.074890 155.817444,532.567505 
z"/>
<path fill="#595E64" opacity="1.000000" stroke="none" 
	d="
M255.659973,229.987549 
	C254.847977,231.146927 253.695724,232.294891 252.243347,233.205414 
	C253.068710,231.970703 254.194199,230.973419 255.659973,229.987549 
z"/>
<path fill="#494E56" opacity="1.000000" stroke="none" 
	d="
M860.359802,817.977905 
	C860.811707,816.588013 861.584717,815.119446 862.713501,813.832214 
	C862.273132,815.308777 861.476990,816.604004 860.359802,817.977905 
z"/>
<path fill="#595E64" opacity="1.000000" stroke="none" 
	d="
M246.079010,841.322449 
	C247.293671,841.789490 248.648499,842.558167 250.014099,843.688232 
	C248.756317,843.241150 247.487732,842.432617 246.079010,841.322449 
z"/>
<path fill="#45C070" opacity="1.000000" stroke="none" 
	d="
M522.414246,158.422455 
	C522.734863,158.496857 522.955322,158.694351 522.955566,158.754532 
	C521.632446,159.106735 520.308960,159.398773 518.535645,159.571838 
	C518.085693,159.452881 518.176392,159.381454 518.176392,159.381454 
	C519.482117,159.036972 520.787903,158.692505 522.414246,158.422455 
z"/>
<path fill="#595E64" opacity="1.000000" stroke="none" 
	d="
M517.735718,159.301559 
	C518.176392,159.381454 518.085693,159.452881 518.123901,159.497986 
	C515.965454,159.615280 513.768799,159.687439 511.371704,159.421692 
	C513.212524,159.129745 515.253723,159.175705 517.735718,159.301559 
z"/>
<path fill="#53585D" opacity="1.000000" stroke="none" 
	d="
M437.781494,165.569275 
	C437.281311,165.532547 436.563202,165.562881 435.648376,165.717422 
	C436.155609,165.773193 436.859589,165.704758 437.781494,165.569275 
z"/>
<path fill="#595E64" opacity="1.000000" stroke="none" 
	d="
M241.986298,837.329102 
	C242.763336,837.463928 243.589600,837.908875 244.196716,838.707397 
	C243.330231,838.587036 242.682877,838.113159 241.986298,837.329102 
z"/>
<path fill="#45C070" opacity="1.000000" stroke="none" 
	d="
M550.328735,158.602570 
	C550.199280,158.540314 550.120972,158.456635 550.174011,158.429230 
	C550.227051,158.401810 550.446594,158.226151 550.584412,158.198578 
	C550.728943,158.386612 550.640930,158.551208 550.328735,158.602570 
z"/>
<path fill="#595E64" opacity="1.000000" stroke="none" 
	d="
M279.902161,866.329712 
	C280.409180,866.125488 280.881592,866.230347 281.168060,866.698914 
	C280.610626,866.921387 280.239105,866.780151 279.902161,866.329712 
z"/>
<path fill="#595E64" opacity="1.000000" stroke="none" 
	d="
M244.992615,840.283142 
	C245.389999,840.103455 245.845688,840.197571 246.148849,840.678284 
	C245.681183,840.895508 245.366043,840.726257 244.992615,840.283142 
z"/>
<path fill="#595E64" opacity="1.000000" stroke="none" 
	d="
M243.992462,839.284424 
	C244.385483,839.107178 244.836502,839.202576 245.139130,839.681885 
	C244.677307,839.896179 244.363892,839.726624 243.992462,839.284424 
z"/>
<path fill="#595E64" opacity="1.000000" stroke="none" 
	d="
M240.978729,836.290771 
	C241.377884,836.111389 241.821625,836.213318 242.126633,836.690247 
	C241.666367,836.900879 241.344833,836.736450 240.978729,836.290771 
z"/>
<path fill="#595E64" opacity="1.000000" stroke="none" 
	d="
M239.977554,835.292603 
	C240.371887,835.111877 240.809494,835.213684 241.118530,835.690552 
	C240.666931,835.902100 240.343872,835.738586 239.977554,835.292603 
z"/>
<path fill="#595E64" opacity="1.000000" stroke="none" 
	d="
M238.977203,834.292542 
	C239.371307,834.112183 239.808380,834.214417 240.117554,834.691162 
	C239.666489,834.902222 239.343338,834.738708 238.977203,834.292542 
z"/>
<path fill="#298DD1" opacity="1.000000" stroke="none" 
	d="
M340.997131,477.931641 
	C340.541107,477.960327 340.085083,477.989014 339.013000,477.679260 
	C337.095428,477.271912 335.793854,477.202972 334.492310,477.134064 
	C317.943634,475.333862 305.959534,466.103455 297.710052,452.506012 
	C286.357635,433.793976 286.333710,414.224243 298.529297,395.941467 
	C311.119629,377.066986 329.641541,368.805786 352.076263,372.545959 
	C374.733948,376.323242 389.274475,390.431488 395.286377,412.501617 
	C396.982178,418.726959 396.113922,425.650696 395.851196,432.626892 
	C394.038940,432.667419 392.232666,432.743988 391.647675,431.936157 
	C388.016174,426.921265 382.533936,431.360565 378.403870,429.163055 
	C378.073914,428.987518 377.146637,429.555542 376.721405,429.995178 
	C370.312714,436.620300 363.849915,443.197388 357.608856,449.978119 
	C355.251862,452.539001 354.093353,456.029816 349.926361,456.959747 
	C348.348541,457.311859 346.810211,459.890930 346.118500,461.772736 
	C344.171021,467.070679 342.672577,472.533691 340.997131,477.931641 
z"/>
<path fill="#33B499" opacity="1.000000" stroke="none" 
	d="
M615.098633,594.689209 
	C609.786682,599.644897 604.781067,604.988159 599.100830,609.477844 
	C586.167664,619.700134 571.238647,625.541626 554.157043,628.138794 
	C546.562073,628.177917 539.808777,628.191528 533.055542,628.205139 
	C525.274353,626.175232 517.493103,624.145325 509.562927,621.644714 
	C513.449524,615.052612 515.061584,606.866150 523.610962,604.566162 
	C524.113770,604.430969 524.553345,603.653259 524.811157,603.079651 
	C527.062134,598.071533 530.888489,594.814636 535.571777,592.008789 
	C538.718384,590.123596 541.766541,587.261963 543.450195,584.089661 
	C544.291016,582.505432 541.954468,579.251953 541.103577,576.737183 
	C540.950500,576.284851 541.033630,575.752625 541.450745,575.180481 
	C552.865662,575.574463 561.686768,570.675171 570.051147,563.835083 
	C570.528564,563.399292 570.726807,563.067078 571.050537,562.424683 
	C573.160889,558.734192 575.145691,555.353943 577.347046,551.799255 
	C577.669128,551.273621 577.774719,550.922485 577.856323,550.419678 
	C577.832275,550.268127 577.990112,550.004883 578.393677,549.954285 
	C579.582397,549.639893 580.382446,549.110352 581.150391,549.153442 
	C589.127747,549.601196 592.883667,544.730164 596.608948,538.479187 
	C600.262573,532.348450 605.380554,527.046448 610.154480,521.644592 
	C612.814026,518.635193 616.374023,516.415039 618.990906,513.376404 
	C621.430054,510.544128 623.157654,507.099060 625.441895,503.948425 
	C625.685303,503.973083 626.141174,504.151031 626.141174,504.151031 
	C628.407654,515.003906 631.608948,525.763794 632.699829,536.733521 
	C634.011536,549.924377 631.249146,562.890625 625.826538,575.814087 
	C622.051941,582.499268 618.575256,588.594238 615.098633,594.689209 
z"/>
<path fill="#2694C9" opacity="1.000000" stroke="none" 
	d="
M552.003662,257.236633 
	C579.766724,261.889191 595.674866,284.512390 596.805908,306.632111 
	C598.209839,334.086639 581.667664,355.609161 554.063232,362.248535 
	C546.518921,362.273102 539.778381,362.227295 533.037842,362.181458 
	C507.858459,356.206940 493.881927,340.125305 490.546631,314.184906 
	C496.058868,312.217041 493.647064,316.822021 494.530090,318.619781 
	C496.077637,318.906525 497.412323,319.011780 498.654083,319.408112 
	C504.535248,321.285065 504.939392,320.924530 506.117645,314.663940 
	C506.381989,313.259613 507.912262,311.949646 509.119507,310.893036 
	C513.036316,307.464996 517.662231,304.662415 520.929565,300.719421 
	C526.084717,294.498199 532.626099,290.650665 539.885010,288.055115 
	C542.904724,286.975372 546.780273,288.476135 549.985718,287.676788 
	C553.248230,286.863190 556.120850,284.570221 559.243347,283.092377 
	C564.180237,280.755859 566.940002,273.862610 565.022766,268.337006 
	C560.325195,268.811127 558.290161,267.649384 556.994690,264.575226 
	C556.272766,262.862061 554.669250,261.533325 553.547729,259.970520 
	C552.941101,259.125183 552.512573,258.152100 552.003662,257.236633 
z"/>
<path fill="#2EAAB4" opacity="1.000000" stroke="none" 
	d="
M554.123047,451.874939 
	C558.056580,452.588013 562.180176,452.777954 565.884094,454.123230 
	C573.569031,456.914429 581.031311,460.318970 588.781982,464.156921 
	C588.743774,472.817810 586.084290,479.192444 577.915222,482.166809 
	C577.073364,482.473297 576.764038,484.029388 575.991455,484.784424 
	C574.481995,486.259583 572.927551,487.737488 571.189758,488.916382 
	C569.502502,490.061066 567.434448,490.647034 565.756287,491.801880 
	C560.332336,495.534485 559.593750,502.013916 556.513550,507.240082 
	C529.611206,497.795746 503.366760,519.619385 508.342651,547.931274 
	C504.461029,551.982361 501.082794,556.049988 497.346619,559.756836 
	C491.707642,565.351685 481.862946,565.986511 479.144989,575.105957 
	C479.069550,575.359131 478.666382,575.558472 478.375153,575.696899 
	C473.936310,577.807251 469.490570,579.903137 464.827881,581.742310 
	C463.446289,579.671082 462.283264,577.859802 461.120239,576.048584 
	C458.898041,565.957092 456.653992,555.870361 454.481262,545.768250 
	C454.207825,544.496765 454.309937,543.144470 454.643646,541.322998 
	C456.373016,539.002808 457.322601,536.603027 459.085724,535.477905 
	C466.516052,530.736328 473.113770,524.580322 482.228424,522.626282 
	C486.170837,521.781067 489.980560,519.744446 491.533234,515.162720 
	C492.000458,513.784058 493.454041,512.396545 494.808624,511.727173 
	C498.583038,509.862274 502.621246,508.529999 506.389435,506.654205 
	C507.854462,505.924957 508.980988,504.391174 510.079376,503.072021 
	C514.371155,497.917480 518.421570,492.550415 522.907043,487.573639 
	C525.154846,485.079590 528.167664,483.281586 530.791626,481.116882 
	C531.984741,480.132599 533.062866,479.009918 534.213989,477.973145 
	C535.259338,477.031525 536.381897,476.171295 537.385864,475.188751 
	C542.497314,470.186310 547.588623,465.163055 552.667419,460.127441 
	C553.445862,459.355652 554.675781,458.487396 554.684387,457.653229 
	C554.692383,456.887451 553.346985,456.093597 552.573425,455.337097 
	C551.394653,454.184174 550.194885,453.052795 549.429810,451.880493 
	C551.278137,451.857422 552.700623,451.866180 554.123047,451.874939 
z"/>
<path fill="#33B299" opacity="1.000000" stroke="none" 
	d="
M721.897888,473.362335 
	C715.467957,468.844330 709.037964,464.326294 702.137207,459.403809 
	C698.448547,452.927795 695.230652,446.856232 692.012695,440.784668 
	C691.561218,433.774445 691.109680,426.764191 691.104126,419.637939 
	C691.983521,421.569977 691.800964,424.123383 692.979614,425.560028 
	C695.376770,428.481842 706.963867,428.301147 710.390869,426.203339 
	C719.436646,420.666138 725.280273,412.446136 730.357300,403.457214 
	C731.952271,400.633209 732.312683,396.730591 736.492554,395.858368 
	C737.060730,395.739807 737.363647,394.535034 737.869995,393.897217 
	C738.980896,392.497864 739.886719,390.719269 741.329712,389.838013 
	C747.218018,386.241943 752.142822,377.644135 750.926270,372.510406 
	C771.919739,375.275177 785.725769,387.175812 793.514648,406.638550 
	C790.661560,406.278320 788.647888,405.765961 787.497070,409.376251 
	C786.907043,411.227386 784.350891,412.529449 782.544617,413.896332 
	C780.051697,415.782837 777.320801,417.363617 774.891541,419.323029 
	C772.719666,421.074921 770.901917,423.259552 768.781067,425.082397 
	C763.905823,429.272430 758.983398,433.410248 753.996033,437.465851 
	C751.321838,439.640472 748.573486,441.756348 745.679016,443.619812 
	C741.847595,446.086456 737.583130,447.938171 733.962524,450.662567 
	C726.494141,456.282349 725.769897,465.702545 721.897888,473.362335 
z"/>
<path fill="#47C35E" opacity="1.000000" stroke="none" 
	d="
M795.921875,643.984497 
	C799.381287,659.915649 795.790710,674.297180 786.164795,687.236145 
	C773.182434,704.686768 751.604126,711.872986 729.348572,705.614380 
	C728.652405,701.738098 728.131042,698.456177 728.058350,695.164246 
	C727.994324,692.263733 727.461670,690.204468 724.402466,688.863403 
	C720.638489,687.213318 719.286987,680.928406 719.806641,677.047974 
	C720.747742,670.021118 723.270996,664.646973 730.281677,662.121643 
	C730.567017,662.018921 730.913086,661.710938 730.982117,661.436218 
	C732.379944,655.866516 736.924866,653.412903 741.073669,650.119873 
	C748.870544,643.931030 757.015991,639.253906 766.723694,636.519043 
	C770.437439,635.472900 772.868530,637.501953 775.993225,637.057495 
	C780.617981,636.399719 785.325378,636.322144 790.149292,636.305725 
	C792.174683,639.070801 794.048279,641.527649 795.921875,643.984497 
z"/>
<path fill="#41C166" opacity="1.000000" stroke="none" 
	d="
M589.411377,742.858765 
	C605.615295,767.574768 596.378784,810.038879 559.397278,820.968506 
	C546.537659,824.768921 533.798279,824.371704 521.109680,818.059082 
	C520.421265,817.437439 520.103271,817.303406 519.785217,817.169434 
	C519.785217,817.169434 519.847473,817.253845 519.849487,816.870483 
	C519.664368,814.874512 518.810913,812.952637 519.393494,811.697205 
	C525.099365,799.402527 529.098999,785.955322 541.451233,777.963196 
	C542.789429,777.097351 544.055481,775.699341 544.700134,774.255737 
	C547.320679,768.387268 549.338989,762.243591 555.098389,758.369507 
	C559.657837,755.302612 560.499817,748.396729 566.662842,746.886902 
	C574.157593,745.050781 580.834717,738.585144 589.411377,742.858765 
z"/>
<path fill="#2FABB6" opacity="1.000000" stroke="none" 
	d="
M326.482941,705.209595 
	C314.070465,701.953064 304.889893,694.438110 298.201782,683.057800 
	C299.460114,681.101440 300.621429,679.748108 301.882629,678.495178 
	C305.795654,674.607788 309.763397,670.775452 313.669128,666.880920 
	C314.484558,666.067749 315.013519,664.954773 315.864594,664.192017 
	C321.894806,658.787903 327.932739,653.390686 334.051605,648.087585 
	C338.983002,643.813538 343.958832,639.583923 349.051453,635.505005 
	C352.885223,632.434387 356.914459,629.604858 360.904449,626.734314 
	C361.835083,626.064758 362.958893,625.221558 363.994476,625.220642 
	C367.487579,625.217529 370.312531,623.716125 370.523010,620.402771 
	C370.738434,617.011292 370.823120,613.121643 366.915436,610.788330 
	C365.856842,610.156189 365.674957,608.055969 365.090668,606.629578 
	C371.487915,611.161682 377.885193,615.693848 384.708618,620.646851 
	C388.198669,626.995605 391.262573,632.923462 393.959839,638.912231 
	C391.311279,641.023560 388.908905,642.956482 386.770844,645.147278 
	C381.053741,651.005493 372.765991,653.702820 368.332825,661.441406 
	C366.521301,664.603699 361.304901,665.734314 359.686798,670.026733 
	C359.520111,670.468872 358.445465,670.490417 357.964233,670.906250 
	C356.150269,672.473755 353.931763,673.833130 352.731720,675.799561 
	C349.731415,680.716064 348.075653,686.732178 344.276154,690.813721 
	C339.129456,696.342468 332.484924,700.476990 326.482941,705.209595 
z"/>
<path fill="#2EA6BD" opacity="1.000000" stroke="none" 
	d="
M549.003967,451.912292 
	C550.194885,453.052795 551.394653,454.184174 552.573425,455.337097 
	C553.346985,456.093597 554.692383,456.887451 554.684387,457.653229 
	C554.675781,458.487396 553.445862,459.355652 552.667419,460.127441 
	C547.588623,465.163055 542.497314,470.186310 537.385864,475.188751 
	C536.381897,476.171295 535.259338,477.031525 534.213989,477.973145 
	C533.062866,479.009918 531.984741,480.132599 530.791626,481.116882 
	C528.167664,483.281586 525.154846,485.079590 522.907043,487.573639 
	C518.421570,492.550415 514.371155,497.917480 510.079376,503.072021 
	C508.980988,504.391174 507.854462,505.924957 506.389435,506.654205 
	C502.621246,508.529999 498.583038,509.862274 494.808624,511.727173 
	C493.454041,512.396545 492.000458,513.784058 491.533234,515.162720 
	C489.980560,519.744446 486.170837,521.781067 482.228424,522.626282 
	C473.113770,524.580322 466.516052,530.736328 459.085724,535.477905 
	C457.322601,536.603027 456.373016,539.002808 454.740784,540.905151 
	C455.563904,533.267578 456.550323,525.515991 457.883301,517.824402 
	C458.637604,513.472229 459.961090,509.218719 461.293396,504.310486 
	C465.057465,497.726257 468.556335,491.752258 472.055237,485.778259 
	C480.150970,476.959442 488.808075,468.863495 499.326721,462.870392 
	C509.576721,457.030396 520.487305,453.473328 532.996216,452.035553 
	C538.890625,451.951324 543.947266,451.931824 549.003967,451.912292 
z"/>
<path fill="#2CA5BE" opacity="1.000000" stroke="none" 
	d="
M364.793945,606.415588 
	C365.674957,608.055969 365.856842,610.156189 366.915436,610.788330 
	C370.823120,613.121643 370.738434,617.011292 370.523010,620.402771 
	C370.312531,623.716125 367.487579,625.217529 363.994476,625.220642 
	C362.958893,625.221558 361.835083,626.064758 360.904449,626.734314 
	C356.914459,629.604858 352.885223,632.434387 349.051453,635.505005 
	C343.958832,639.583923 338.983002,643.813538 334.051605,648.087585 
	C327.932739,653.390686 321.894806,658.787903 315.864594,664.192017 
	C315.013519,664.954773 314.484558,666.067749 313.669128,666.880920 
	C309.763397,670.775452 305.795654,674.607788 301.882629,678.495178 
	C300.621429,679.748108 299.460114,681.101440 298.113770,682.727234 
	C286.575378,664.960449 287.004852,646.479919 297.084320,628.246460 
	C308.139160,608.248657 333.153900,597.750916 355.322540,603.147522 
	C358.443665,603.907288 361.442078,605.171082 364.793945,606.415588 
z"/>
<path fill="#3EBF71" opacity="1.000000" stroke="none" 
	d="
M589.297913,742.521118 
	C580.834717,738.585144 574.157593,745.050781 566.662842,746.886902 
	C560.499817,748.396729 559.657837,755.302612 555.098389,758.369507 
	C549.338989,762.243591 547.320679,768.387268 544.700134,774.255737 
	C544.055481,775.699341 542.789429,777.097351 541.451233,777.963196 
	C529.098999,785.955322 525.099365,799.402527 519.393494,811.697205 
	C518.810913,812.952637 519.664368,814.874512 519.801025,816.890686 
	C506.427887,811.365173 498.286591,800.789368 493.110840,787.563416 
	C492.751404,786.644897 492.514404,785.678406 492.563782,784.318359 
	C494.703308,782.302673 496.264679,779.849548 498.343689,779.277344 
	C502.952606,778.008911 506.030548,775.145264 507.749695,771.184448 
	C509.461517,767.240540 511.307098,764.260437 515.977722,763.709229 
	C516.916626,763.598450 517.735474,761.951111 518.492615,760.925842 
	C520.163879,758.662720 521.853027,756.403076 523.355835,754.028625 
	C524.387573,752.398499 525.134094,750.585510 525.978516,748.839966 
	C526.670044,747.410217 527.014771,745.683655 528.034546,744.563049 
	C534.037170,737.967346 540.187073,731.505554 546.299255,725.009827 
	C548.516785,722.653137 550.767090,720.327332 553.337158,717.919556 
	C553.898499,717.829651 554.125122,717.807678 554.351807,717.785645 
	C554.739929,717.890747 555.128052,717.995850 555.988037,718.390503 
	C556.800049,718.743896 557.140137,718.807617 557.480225,718.871399 
	C571.572998,721.848511 581.549011,730.424377 589.297913,742.521118 
z"/>
<path fill="#30AFA4" opacity="1.000000" stroke="none" 
	d="
M556.899841,507.349915 
	C559.593750,502.013916 560.332336,495.534485 565.756287,491.801880 
	C567.434448,490.647034 569.502502,490.061066 571.189758,488.916382 
	C572.927551,487.737488 574.481995,486.259583 575.991455,484.784424 
	C576.764038,484.029388 577.073364,482.473297 577.915222,482.166809 
	C586.084290,479.192444 588.743774,472.817810 588.986267,464.430145 
	C599.048584,469.206451 606.924683,476.980072 614.693604,485.782593 
	C618.457764,492.119324 621.828125,498.021545 625.198486,503.923737 
	C623.157654,507.099060 621.430054,510.544128 618.990906,513.376404 
	C616.374023,516.415039 612.814026,518.635193 610.154480,521.644592 
	C605.380554,527.046448 600.262573,532.348450 596.608948,538.479187 
	C592.883667,544.730164 589.127747,549.601196 581.150391,549.153442 
	C580.382446,549.110352 579.582397,549.639893 578.396545,549.532227 
	C578.358337,546.715454 579.029724,544.270752 579.033447,541.824951 
	C579.057800,525.621704 571.866150,513.969421 556.899841,507.349915 
z"/>
<path fill="#31AFA8" opacity="1.000000" stroke="none" 
	d="
M465.046448,582.002380 
	C469.490570,579.903137 473.936310,577.807251 478.375153,575.696899 
	C478.666382,575.558472 479.069550,575.359131 479.144989,575.105957 
	C481.862946,565.986511 491.707642,565.351685 497.346619,559.756836 
	C501.082794,556.049988 504.461029,551.982361 508.467834,548.245056 
	C513.579407,564.586731 524.950867,572.721008 541.007690,575.257324 
	C541.033630,575.752625 540.950500,576.284851 541.103577,576.737183 
	C541.954468,579.251953 544.291016,582.505432 543.450195,584.089661 
	C541.766541,587.261963 538.718384,590.123596 535.571777,592.008789 
	C530.888489,594.814636 527.062134,598.071533 524.811157,603.079651 
	C524.553345,603.653259 524.113770,604.430969 523.610962,604.566162 
	C515.061584,606.866150 513.449524,615.052612 509.244141,621.456177 
	C495.940063,616.424622 484.793365,608.348389 475.533020,597.639038 
	C474.679016,596.651367 473.715912,595.758057 472.394440,594.397705 
	C469.672424,589.983826 467.359436,585.993103 465.046448,582.002380 
z"/>
<path fill="#35B790" opacity="1.000000" stroke="none" 
	d="
M722.151489,473.594543 
	C725.769897,465.702545 726.494141,456.282349 733.962524,450.662567 
	C737.583130,447.938171 741.847595,446.086456 745.679016,443.619812 
	C748.573486,441.756348 751.321838,439.640472 753.996033,437.465851 
	C758.983398,433.410248 763.905823,429.272430 768.781067,425.082397 
	C770.901917,423.259552 772.719666,421.074921 774.891541,419.323029 
	C777.320801,417.363617 780.051697,415.782837 782.544617,413.896332 
	C784.350891,412.529449 786.907043,411.227386 787.497070,409.376251 
	C788.647888,405.765961 790.661560,406.278320 793.533081,406.997375 
	C801.981812,426.909424 794.824341,453.290466 777.329407,466.662445 
	C760.491821,479.531891 742.044800,481.644806 722.151489,473.594543 
z"/>
<path fill="#2890D0" opacity="1.000000" stroke="none" 
	d="
M551.593567,257.130554 
	C552.512573,258.152100 552.941101,259.125183 553.547729,259.970520 
	C554.669250,261.533325 556.272766,262.862061 556.994690,264.575226 
	C558.290161,267.649384 560.325195,268.811127 565.022766,268.337006 
	C566.940002,273.862610 564.180237,280.755859 559.243347,283.092377 
	C556.120850,284.570221 553.248230,286.863190 549.985718,287.676788 
	C546.780273,288.476135 542.904724,286.975372 539.885010,288.055115 
	C532.626099,290.650665 526.084717,294.498199 520.929565,300.719421 
	C517.662231,304.662415 513.036316,307.464996 509.119507,310.893036 
	C507.912262,311.949646 506.381989,313.259613 506.117645,314.663940 
	C504.939392,320.924530 504.535248,321.285065 498.654083,319.408112 
	C497.412323,319.011780 496.077637,318.906525 494.530090,318.619781 
	C493.647064,316.822021 496.058868,312.217041 490.585022,313.786560 
	C490.226807,313.184875 490.148743,312.435913 490.346558,311.125305 
	C490.489227,309.729218 490.356049,308.894714 490.222839,308.060211 
	C490.214508,283.195679 512.162598,259.044678 536.821289,257.009552 
	C541.575928,256.617188 546.394409,256.999512 551.593567,257.130554 
z"/>
<path fill="#2FAFAE" opacity="1.000000" stroke="none" 
	d="
M326.796326,705.469604 
	C332.484924,700.476990 339.129456,696.342468 344.276154,690.813721 
	C348.075653,686.732178 349.731415,680.716064 352.731720,675.799561 
	C353.931763,673.833130 356.150269,672.473755 357.964233,670.906250 
	C358.445465,670.490417 359.520111,670.468872 359.686798,670.026733 
	C361.304901,665.734314 366.521301,664.603699 368.332825,661.441406 
	C372.765991,653.702820 381.053741,651.005493 386.770844,645.147278 
	C388.908905,642.956482 391.311279,641.023560 394.151550,638.909668 
	C394.709930,638.846191 395.060547,639.006470 395.060547,639.006470 
	C399.683228,657.921814 397.031555,675.392273 383.705841,690.146179 
	C370.500458,704.766846 353.788452,710.350403 334.284302,707.321472 
	C331.868622,706.946289 329.500092,706.267578 326.796326,705.469604 
z"/>
<path fill="#43BF65" opacity="1.000000" stroke="none" 
	d="
M743.014404,602.143066 
	C746.419922,602.342590 749.825378,602.542114 753.848938,603.152222 
	C755.160156,603.654236 755.853394,603.745605 756.546570,603.836914 
	C757.176331,603.869080 757.806091,603.901184 758.920776,604.263123 
	C759.772400,604.681335 760.139038,604.769775 760.505737,604.858215 
	C771.991943,607.631714 780.370239,614.696350 786.744873,624.493042 
	C784.005737,624.008301 781.582825,623.121460 780.288696,622.647766 
	C777.346741,624.076660 775.299683,625.426697 773.050415,626.079285 
	C769.726013,627.043640 766.260925,627.528381 762.850037,628.188049 
	C758.331482,629.061829 754.225281,630.010498 750.621948,633.780334 
	C748.006348,636.516846 744.046936,638.826477 738.955383,637.248291 
	C735.348206,636.130188 730.674927,636.100098 730.715515,642.548462 
	C730.722412,643.645386 728.333618,644.888489 726.895996,645.825134 
	C725.560913,646.694946 723.627136,646.893494 722.632874,647.996765 
	C718.006836,653.130066 713.597656,658.459900 709.163940,663.763855 
	C708.651855,664.376465 708.205872,665.255981 708.177429,666.028259 
	C707.917175,673.088074 700.287476,677.903931 702.185547,685.627686 
	C702.193970,685.661865 701.304932,685.916565 700.835022,686.068237 
	C692.864990,677.181091 690.857056,666.226379 690.417419,654.390686 
	C692.955750,652.350952 695.620361,649.061279 697.135986,649.525208 
	C703.511292,651.476746 707.224365,646.541748 710.890625,643.965637 
	C717.035950,639.647705 721.687805,633.208984 726.989197,627.682861 
	C728.913330,625.677246 730.631287,623.323547 732.904419,621.830994 
	C740.078430,617.120789 743.626587,610.751953 743.014404,602.143066 
z"/>
<path fill="#29323B" opacity="1.000000" stroke="none" 
	d="
M471.754333,485.534546 
	C468.556335,491.752258 465.057465,497.726257 461.294495,503.925018 
	C435.909363,489.336212 410.788391,474.522644 385.435303,459.188660 
	C388.489166,452.757812 391.775116,446.847412 395.061096,440.936981 
	C420.525177,455.721619 445.989288,470.506226 471.754333,485.534546 
z"/>
<path fill="#29313A" opacity="1.000000" stroke="none" 
	d="
M625.441895,503.948425 
	C621.828125,498.021545 618.457764,492.119324 615.031372,485.912018 
	C640.426880,470.751434 665.878357,455.895996 691.671265,440.912628 
	C695.230652,446.856232 698.448547,452.927795 701.795654,459.287292 
	C676.872375,474.334869 651.819824,489.094574 626.454224,504.002625 
	C626.141174,504.151031 625.685303,503.973083 625.441895,503.948425 
z"/>
<path fill="#293038" opacity="1.000000" stroke="none" 
	d="
M615.435852,594.818848 
	C618.575256,588.594238 622.051941,582.499268 625.794312,576.179565 
	C651.176880,590.660583 676.293640,605.366333 701.600830,620.595337 
	C698.537781,627.398499 695.284363,633.678467 692.030884,639.958496 
	C682.829163,634.403748 673.678040,628.762939 664.414368,623.313354 
	C648.237061,613.796387 631.990601,604.397095 615.435852,594.818848 
z"/>
<path fill="#29323B" opacity="1.000000" stroke="none" 
	d="
M395.373474,638.861694 
	C395.060547,639.006470 394.709930,638.846191 394.518219,638.848755 
	C391.262573,632.923462 388.198669,626.995605 385.045410,620.758179 
	C410.178986,605.813232 435.401917,591.177795 460.872559,576.295410 
	C462.283264,577.859802 463.446289,579.671082 464.827881,581.742310 
	C467.359436,585.993103 469.672424,589.983826 472.060730,594.295166 
	C447.662079,608.739380 423.188202,622.863098 398.713837,636.985962 
	C397.707001,637.566956 396.695679,638.140076 395.373474,638.861694 
z"/>
<path fill="#29323B" opacity="1.000000" stroke="none" 
	d="
M549.429810,451.880493 
	C543.947266,451.931824 538.890625,451.951324 533.402832,451.954193 
	C532.965881,422.317841 532.959961,392.698120 532.995972,362.629944 
	C539.778381,362.227295 546.518921,362.273102 553.675842,362.326202 
	C554.113403,391.876801 554.134583,421.420135 554.139404,451.419189 
	C552.700623,451.866180 551.278137,451.857422 549.429810,451.880493 
z"/>
<path fill="#272F39" opacity="1.000000" stroke="none" 
	d="
M554.352417,717.337402 
	C554.125122,717.807678 553.898499,717.829651 552.965515,717.728516 
	C545.878784,717.672424 539.498474,717.739502 533.118164,717.806580 
	C533.080017,688.237000 533.041809,658.667358 533.029541,628.651489 
	C539.808777,628.191528 546.562073,628.177917 553.752136,628.185547 
	C554.243652,657.767639 554.298340,687.328430 554.352417,717.337402 
z"/>
<path fill="#30AFA4" opacity="1.000000" stroke="none" 
	d="
M750.500732,372.416351 
	C752.142822,377.644135 747.218018,386.241943 741.329712,389.838013 
	C739.886719,390.719269 738.980896,392.497864 737.869995,393.897217 
	C737.363647,394.535034 737.060730,395.739807 736.492554,395.858368 
	C732.312683,396.730591 731.952271,400.633209 730.357300,403.457214 
	C725.280273,412.446136 719.436646,420.666138 710.390869,426.203339 
	C706.963867,428.301147 695.376770,428.481842 692.979614,425.560028 
	C691.800964,424.123383 691.983521,421.569977 691.257202,419.257751 
	C692.159729,397.455017 710.273254,377.510803 733.204285,373.108398 
	C738.676514,372.057892 744.443665,372.543335 750.500732,372.416351 
z"/>
<path fill="#3CBC7A" opacity="1.000000" stroke="none" 
	d="
M532.715454,717.893372 
	C539.498474,717.739502 545.878784,717.672424 552.630737,717.796387 
	C550.767090,720.327332 548.516785,722.653137 546.299255,725.009827 
	C540.187073,731.505554 534.037170,737.967346 528.034546,744.563049 
	C527.014771,745.683655 526.670044,747.410217 525.978516,748.839966 
	C525.134094,750.585510 524.387573,752.398499 523.355835,754.028625 
	C521.853027,756.403076 520.163879,758.662720 518.492615,760.925842 
	C517.735474,761.951111 516.916626,763.598450 515.977722,763.709229 
	C511.307098,764.260437 509.461517,767.240540 507.749695,771.184448 
	C506.030548,775.145264 502.952606,778.008911 498.343689,779.277344 
	C496.264679,779.849548 494.703308,782.302673 492.573547,783.952637 
	C482.974945,756.515198 503.831573,722.152405 532.715454,717.893372 
z"/>
<path fill="#46C264" opacity="1.000000" stroke="none" 
	d="
M700.984436,686.372314 
	C701.304932,685.916565 702.193970,685.661865 702.185547,685.627686 
	C700.287476,677.903931 707.917175,673.088074 708.177429,666.028259 
	C708.205872,665.255981 708.651855,664.376465 709.163940,663.763855 
	C713.597656,658.459900 718.006836,653.130066 722.632874,647.996765 
	C723.627136,646.893494 725.560913,646.694946 726.895996,645.825134 
	C728.333618,644.888489 730.722412,643.645386 730.715515,642.548462 
	C730.674927,636.100098 735.348206,636.130188 738.955383,637.248291 
	C744.046936,638.826477 748.006348,636.516846 750.621948,633.780334 
	C754.225281,630.010498 758.331482,629.061829 762.850037,628.188049 
	C766.260925,627.528381 769.726013,627.043640 773.050415,626.079285 
	C775.299683,625.426697 777.346741,624.076660 780.288696,622.647766 
	C781.582825,623.121460 784.005737,624.008301 786.819946,624.826538 
	C787.211243,624.757874 787.175537,624.829956 787.211426,625.087524 
	C787.528015,625.554932 787.808716,625.764771 788.089355,625.974609 
	C789.051697,627.418823 790.014038,628.862976 790.731445,630.880981 
	C790.323547,632.969055 790.160522,634.483276 789.997559,635.997559 
	C785.325378,636.322144 780.617981,636.399719 775.993225,637.057495 
	C772.868530,637.501953 770.437439,635.472900 766.723694,636.519043 
	C757.015991,639.253906 748.870544,643.931030 741.073669,650.119873 
	C736.924866,653.412903 732.379944,655.866516 730.982117,661.436218 
	C730.913086,661.710938 730.567017,662.018921 730.281677,662.121643 
	C723.270996,664.646973 720.747742,670.021118 719.806641,677.047974 
	C719.286987,680.928406 720.638489,687.213318 724.402466,688.863403 
	C727.461670,690.204468 727.994324,692.263733 728.058350,695.164246 
	C728.131042,698.456177 728.652405,701.738098 728.991943,705.433960 
	C717.508240,702.663086 708.173218,696.338745 700.984436,686.372314 
z"/>
<path fill="#2B95D0" opacity="1.000000" stroke="none" 
	d="
M395.029724,440.539551 
	C391.775116,446.847412 388.489166,452.757812 385.149658,458.961365 
	C380.656738,462.957062 376.496735,467.077698 371.717560,470.271881 
	C362.768829,476.252838 352.615204,478.432068 341.450195,478.018097 
	C342.672577,472.533691 344.171021,467.070679 346.118500,461.772736 
	C346.810211,459.890930 348.348541,457.311859 349.926361,456.959747 
	C354.093353,456.029816 355.251862,452.539001 357.608856,449.978119 
	C363.849915,443.197388 370.312714,436.620300 376.721405,429.995178 
	C377.146637,429.555542 378.073914,428.987518 378.403870,429.163055 
	C382.533936,431.360565 388.016174,426.921265 391.647675,431.936157 
	C392.232666,432.743988 394.038940,432.667419 395.672821,433.000305 
	C395.709412,435.381378 395.353882,437.761749 395.029724,440.539551 
z"/>
<path fill="#45C070" opacity="1.000000" stroke="none" 
	d="
M692.018799,640.372681 
	C695.284363,633.678467 698.537781,627.398499 701.884583,620.819702 
	C706.901001,616.720520 711.598389,612.571838 716.800476,609.202209 
	C724.425781,604.262878 733.028809,602.074768 742.574402,602.064087 
	C743.626587,610.751953 740.078430,617.120789 732.904419,621.830994 
	C730.631287,623.323547 728.913330,625.677246 726.989197,627.682861 
	C721.687805,633.208984 717.035950,639.647705 710.890625,643.965637 
	C707.224365,646.541748 703.511292,651.476746 697.135986,649.525208 
	C695.620361,649.061279 692.955750,652.350952 690.477905,653.960754 
	C690.759705,649.600586 691.383240,645.193787 692.018799,640.372681 
z"/>
<path fill="#43BF65" opacity="1.000000" stroke="none" 
	d="
M790.149292,636.305725 
	C790.160522,634.483276 790.323547,632.969055 790.776855,631.210693 
	C792.698181,635.049255 794.329163,639.131775 795.941040,643.599426 
	C794.048279,641.527649 792.174683,639.070801 790.149292,636.305725 
z"/>
<path fill="#2B95D0" opacity="1.000000" stroke="none" 
	d="
M334.807098,477.374451 
	C335.793854,477.202972 337.095428,477.271912 338.677704,477.600525 
	C337.679596,477.778442 336.400726,477.696625 334.807098,477.374451 
z"/>
<path fill="#2694C9" opacity="1.000000" stroke="none" 
	d="
M490.147522,308.415955 
	C490.356049,308.894714 490.489227,309.729218 490.412811,310.751892 
	C490.159515,310.217285 490.115875,309.494507 490.147522,308.415955 
z"/>
<path fill="#45C070" opacity="1.000000" stroke="none" 
	d="
M756.297729,603.585693 
	C755.853394,603.745605 755.160156,603.654236 754.234497,603.296143 
	C754.684265,603.131104 755.366516,603.232788 756.297729,603.585693 
z"/>
<path fill="#3CBC7A" opacity="1.000000" stroke="none" 
	d="
M557.296875,718.671997 
	C557.140137,718.807617 556.800049,718.743896 556.269531,718.503418 
	C556.423950,718.375305 556.768799,718.423889 557.296875,718.671997 
z"/>
<path fill="#3EBF71" opacity="1.000000" stroke="none" 
	d="
M519.882812,817.425781 
	C520.103271,817.303406 520.421265,817.437439 520.865479,817.805664 
	C520.654541,817.920593 520.317444,817.801392 519.882812,817.425781 
z"/>
<path fill="#45C070" opacity="1.000000" stroke="none" 
	d="
M760.320251,604.633911 
	C760.139038,604.769775 759.772400,604.681335 759.218262,604.378052 
	C759.398804,604.245422 759.766785,604.327515 760.320251,604.633911 
z"/>
<path fill="#43BF65" opacity="1.000000" stroke="none" 
	d="
M788.020752,625.708496 
	C787.808716,625.764771 787.528015,625.554932 787.171265,625.085815 
	C787.380859,625.031799 787.666504,625.237122 788.020752,625.708496 
z"/>
<path fill="#E2E4E3" opacity="1.000000" stroke="none" 
	d="
M541.450745,575.180481 
	C524.950867,572.721008 513.579407,564.586731 508.810974,548.100098 
	C503.366760,519.619385 529.611206,497.795746 556.513550,507.240082 
	C571.866150,513.969421 579.057800,525.621704 579.033447,541.824951 
	C579.029724,544.270752 578.358337,546.715454 577.992981,549.582764 
	C577.990112,550.004883 577.832275,550.268127 577.628418,550.591553 
	C577.326477,551.267822 577.228455,551.620789 577.130493,551.973694 
	C575.145691,555.353943 573.160889,558.734192 570.803162,562.567139 
	C570.210876,563.326111 569.991516,563.632385 569.772095,563.938599 
	C561.686768,570.675171 552.865662,575.574463 541.450745,575.180481 
z"/>
<path fill="#30AFA4" opacity="1.000000" stroke="none" 
	d="
M577.346985,551.799255 
	C577.228455,551.620789 577.326477,551.267822 577.652405,550.743103 
	C577.774719,550.922485 577.669128,551.273621 577.346985,551.799255 
z"/>
<path fill="#30AFA4" opacity="1.000000" stroke="none" 
	d="
M570.051147,563.835083 
	C569.991516,563.632385 570.210876,563.326111 570.677612,562.877319 
	C570.726807,563.067078 570.528564,563.399292 570.051147,563.835083 
z"/>
</svg>